<?xml version="1.0" encoding="utf-8"?>
<!-- Generator: Adobe Illustrator 21.1.0, SVG Export Plug-In . SVG Version: 6.00 Build 0)  -->
<svg version="1.1" id="Outer" xmlns="http://www.w3.org/2000/svg" xmlns:xlink="http://www.w3.org/1999/xlink" x="0px" y="0px"
	 viewBox="0 0 2401 731" style="enable-background:new 0 0 2401 731;" xml:space="preserve">
<style type="text/css">
	.st0{fill:none;stroke:#FFFFFF;stroke-width:60;stroke-miterlimit:10;}
	.st1{fill:none;stroke:#FFFFFF;stroke-width:40;stroke-miterlimit:10;}
	.st2{fill:#FFFFFF;}
</style>
<g>
	<path class="st0" d="M643.6,472.8V258.6c0-42.9-22.9-82.6-60-104L398.1,47.6c-37.2-21.5-82.9-21.5-120.1,0L92.5,154.6
		c-37.2,21.5-60,61.1-60,104v214.2c0,42.9,22.9,82.6,60,104L278,683.9c37.2,21.5,82.9,21.5,120.1,0l185.5-107.1
		C620.7,555.4,643.6,515.7,643.6,472.8z"/>
</g>
<circle class="st1" cx="338.5" cy="365.7" r="141.8"/>
<line class="st1" x1="480.3" y1="364.7" x2="644.1" y2="364.7"/>
<g>
	<path class="st2" d="M1142.5,364.7c0,109.9-77.3,190.5-188.3,190.5h-123V174.2h123C1065.3,174.2,1142.5,254.7,1142.5,364.7z
		 M1076.2,364.7c0-69.7-46.8-128.4-120.8-128.4h-58.8v256.9h58.8C1029.4,493.1,1076.2,433.8,1076.2,364.7z"/>
	<path class="st2" d="M1413,297.2v257.9h-60.4v-33.7c0,0-22.3,40.3-77.8,40.3c-66.9,0-125.7-56.1-125.7-135.5
		c0-79.5,58.8-135.5,125.7-135.5c53.9,0,77.8,40.3,77.8,40.3v-33.7H1413z M1347.7,387.5c0,0-19-35.9-60.9-35.9
		c-44.1,0-71.3,32.1-71.3,74.6c0,42.4,27.2,74.6,71.3,74.6c41.9,0,60.9-35.9,60.9-35.9V387.5z"/>
	<path class="st2" d="M1628,298.8l-22.9,58.8c0,0-12-6-31-6c-39.7,0-57.7,34.8-57.7,34.8v168.7h-65.3V297.2h62v37.5
		c0,0,22.3-44.1,70.2-44.1C1606.7,290.7,1628,298.8,1628,298.8z"/>
	<path class="st2" d="M1707.4,398.9l92.5-101.8h84.3l-113.2,121.9l120.8,136h-86l-98.5-112.6v112.6h-65.3V143.7h65.3V398.9z"/>
	<path class="st2" d="M2129.7,425.1c0,4.9,0,14.7-0.5,24.5h-192.6c4.9,22.9,31.6,52.2,72.4,52.2c45.2,0,70.7-26.1,70.7-26.1l32.7,49
		c0,0-40.8,37-103.4,37c-78.4,0-138.8-59.9-138.8-135.5c0-75.6,55-135.5,129.5-135.5C2070.4,290.7,2129.7,345.6,2129.7,425.1z
		 M2064.4,402.2c-1.1-22.3-21.8-52.2-64.8-52.2c-41.9,0-60.9,29.4-63.1,52.2H2064.4z"/>
	<path class="st2" d="M2383.3,388.1v167.1H2318V404.4c0-37-22.9-52.8-51.2-52.8c-33.7,0-51.2,33.2-51.2,33.2v170.3h-65.3V297.2h60.9
		v37.5c0,0,22.9-44.1,77.3-44.1C2338.6,290.7,2383.3,326,2383.3,388.1z"/>
</g>
</svg>
